<?xml version="1.0" encoding="iso-8859-1"?>
<!-- Generator: Adobe Illustrator 19.0.0, SVG Export Plug-In . SVG Version: 6.00 Build 0)  -->
<svg version="1.1" id="Layer_1" xmlns="http://www.w3.org/2000/svg" xmlns:xlink="http://www.w3.org/1999/xlink" x="0px" y="0px"
	 viewBox="0 0 512 512" style="enable-background:new 0 0 512 512;" xml:space="preserve">
<path style="fill:#9D773D;" d="M503.777,258.926h-58.21c-4.541,0-8.223-3.682-8.223-8.223s3.682-8.223,8.223-8.223h58.21
	c4.541,0,8.223,3.682,8.223,8.223S508.318,258.926,503.777,258.926z"/>
<path style="opacity:0.15;enable-background:new    ;" d="M451.839,242.481l-12.975,12.974c1.49,2.097,3.934,3.471,6.703,3.471
	h13.084l16.445-16.445H451.839z"/>
<path style="fill:#9D773D;" d="M469.188,233.112c-4.541,0-8.223-3.682-8.223-8.223v-49.022c0-4.541,3.682-8.223,8.223-8.223
	s8.223,3.682,8.223,8.223v49.022C477.411,229.431,473.729,233.112,469.188,233.112z"/>
<path style="opacity:0.15;enable-background:new    ;" d="M460.966,215.179v9.71c0,3.666,2.401,6.77,5.715,7.83l10.73-10.73v-23.257
	L460.966,215.179z"/>
<g>
	<path style="fill:#9D773D;" d="M392.48,310.916c-2.105,0-4.209-0.803-5.814-2.409c-3.211-3.211-3.211-8.418,0-11.628l103.98-103.98
		c3.211-3.211,8.418-3.211,11.629,0c3.211,3.211,3.211,8.418,0,11.629l-103.98,103.98
		C396.689,310.112,394.585,310.916,392.48,310.916z"/>
	<path style="fill:#9D773D;" d="M64.187,247.186H8.223c-4.541,0-8.223-3.682-8.223-8.223s3.682-8.223,8.223-8.223h55.965
		c4.541,0,8.223,3.682,8.223,8.223C72.41,243.505,68.729,247.186,64.187,247.186z"/>
</g>
<path style="opacity:0.15;enable-background:new    ;" d="M59.371,230.741H36.114l16.445,16.445h11.628
	c3.148,0,5.88-1.77,7.261-4.368L59.371,230.741z"/>
<path style="fill:#9D773D;" d="M77.024,257.83c-4.541,0-8.223-3.682-8.223-8.223v-81.138c0-4.541,3.682-8.223,8.223-8.223
	c4.541,0,8.223,3.682,8.223,8.223v81.138C85.246,254.148,81.565,257.83,77.024,257.83z"/>
<path style="opacity:0.15;enable-background:new    ;" d="M68.801,223.082v23.257l11,11c3.173-1.14,5.446-4.166,5.446-7.732v-10.079
	L68.801,223.082z"/>
<path style="fill:#9D773D;" d="M129.013,310.916c-2.104,0-4.209-0.803-5.814-2.409l-103.98-103.98
	c-3.211-3.211-3.211-8.418,0-11.629s8.418-3.211,11.628,0l103.98,103.98c3.211,3.211,3.211,8.418,0,11.628
	C133.222,310.112,131.117,310.916,129.013,310.916z"/>
<path style="fill:#EBEBEB;" d="M372.472,222.374c9.505-17.772,14.902-38.072,14.902-59.635c0-69.932-56.691-126.623-126.623-126.623
	c-69.931,0-126.623,56.692-126.623,126.623c0,21.563,5.396,41.863,14.903,59.635c-33.402,30.381-54.37,74.192-54.37,122.901
	c0,91.729,74.361,166.091,166.09,166.091s166.091-74.362,166.091-166.091C426.841,296.565,405.873,252.755,372.472,222.374z"/>
<path style="opacity:0.05;enable-background:new    ;" d="M347.223,222.374c9.505-17.772,14.902-38.072,14.902-59.635
	c0-19.249-4.303-37.49-11.988-53.827h25.249c-20.232-43.015-63.953-72.796-114.636-72.796c-69.931,0-126.623,56.692-126.623,126.623
	c0,21.563,5.396,41.863,14.903,59.635c-33.401,30.381-54.368,74.192-54.368,122.901c0,87.482,67.634,159.165,153.466,165.616
	c85.831-6.451,153.465-78.135,153.465-165.616C401.592,296.565,380.624,252.755,347.223,222.374z"/>
<g>
	<circle style="fill:#333E48;" cx="193.157" cy="127.737" r="8.396"/>
	<circle style="fill:#333E48;" cx="328.349" cy="127.737" r="8.396"/>
	<path style="fill:#333E48;" d="M260.751,184.091c-13.459,0-26.011-7.244-32.757-18.905c-2.274-3.93-0.932-8.961,3-11.235
		c3.928-2.273,8.961-0.933,11.236,3c3.816,6.597,10.914,10.694,18.523,10.694c7.609,0,14.705-4.096,18.522-10.691
		c2.275-3.93,7.307-5.271,11.236-2.997c3.93,2.275,5.272,7.305,2.997,11.235C286.759,176.849,274.207,184.091,260.751,184.091z"/>
	<circle style="fill:#333E48;" cx="260.747" cy="299.964" r="16.467"/>
	<circle style="fill:#333E48;" cx="260.747" cy="358.784" r="16.467"/>
	<circle style="fill:#333E48;" cx="260.747" cy="417.592" r="16.467"/>
</g>
<circle style="fill:#FF6D68;" cx="260.747" cy="127.737" r="16.467"/>
<path style="fill:#333E48;" d="M371.818,73.655V17.08c0-9.045-7.4-16.445-16.445-16.445H166.131c-9.045,0-16.445,7.4-16.445,16.445
	v56.574H371.818z"/>
<rect x="149.686" y="31.663" style="fill:#FF6D68;" width="222.133" height="41.991"/>
<path style="opacity:0.15;enable-background:new    ;" d="M334.718,0.635H166.131c-9.045,0-16.445,7.4-16.445,16.445v56.574h201.476
	V17.08C351.163,8.035,343.763,0.635,334.718,0.635z"/>
<path style="fill:#5C6670;" d="M382.812,90.115c9.092,0,16.462-7.37,16.462-16.462s-7.37-16.462-16.462-16.462H138.689
	c-9.091,0-16.462,7.37-16.462,16.462c0,9.091,7.371,16.462,16.462,16.462H382.812z"/>
<path style="opacity:0.15;enable-background:new    ;" d="M351.748,57.193H138.689c-9.091,0-16.462,7.37-16.462,16.462
	c0,9.091,7.371,16.462,16.462,16.462h213.059c9.091,0,16.462-7.37,16.462-16.462C368.21,64.562,360.839,57.193,351.748,57.193z"/>
<path style="fill:#00945E;" d="M169.338,372.847c-6.03,0-10.964-4.934-10.964-10.964V233.337c0-6.03,4.934-10.964,10.964-10.964
	H191.4c6.03,0,10.964,4.934,10.964,10.964v128.546c0,6.03-4.934,10.964-10.964,10.964H169.338z"/>
<path style="fill:#00B288;" d="M191.4,222.374h-22.062c-6.03,0-10.964,4.934-10.964,10.964v64.276h43.989v-64.276
	C202.364,227.307,197.43,222.374,191.4,222.374z"/>
<path style="opacity:0.15;enable-background:new    ;" d="M191.4,222.374h-22.062c-6.03,0-10.964,4.934-10.964,10.964v31.434h43.989
	v-31.434C202.364,227.307,197.43,222.374,191.4,222.374z"/>
<path style="fill:#00B288;" d="M105.525,211.343c0-6.03,4.934-10.964,10.964-10.964h279.019c6.03,0,10.964,4.934,10.964,10.964
	v22.062c0,6.03-4.934,10.964-10.964,10.964H116.488c-6.03,0-10.964-4.934-10.964-10.964V211.343z"/>
<g>
	<path style="fill:#00945E;" d="M395.507,200.379h-65.112v43.989h65.112c6.03,0,10.964-4.934,10.964-10.964v-22.062
		C406.471,205.313,401.537,200.379,395.507,200.379z"/>
	<rect x="180.373" y="200.382" style="fill:#00945E;" width="75.628" height="43.986"/>
</g>
<path style="opacity:0.1;enable-background:new    ;" d="M358.784,200.379H116.488c-6.03,0-10.964,4.934-10.964,10.964v22.062
	c0,6.03,4.934,10.964,10.964,10.964h242.296c6.03,0,10.964-4.934,10.964-10.964v-22.062
	C369.747,205.313,364.814,200.379,358.784,200.379z"/>
<g>
</g>
<g>
</g>
<g>
</g>
<g>
</g>
<g>
</g>
<g>
</g>
<g>
</g>
<g>
</g>
<g>
</g>
<g>
</g>
<g>
</g>
<g>
</g>
<g>
</g>
<g>
</g>
<g>
</g>
</svg>
